  0
SECTION
  2
HEADER
  9
$ACADVER
  1
AC1027
  9
$ACADMAINTVER
 70
105
  9
$DWGCODEPAGE
  3
ANSI_1252
  9
$LASTSAVEDBY
  1
ezdxf
  9
$REQUIREDVERSIONS
160
0
  9
$INSBASE
 10
0.0
 20
0.0
 30
0.0
  9
$EXTMIN
 10
1e+20
 20
1e+20
 30
1e+20
  9
$EXTMAX
 10
-1e+20
 20
-1e+20
 30
-1e+20
  9
$LIMMIN
 10
0.0
 20
0.0
  9
$LIMMAX
 10
420.0
 20
297.0
  9
$ORTHOMODE
 70
0
  9
$REGENMODE
 70
1
  9
$FILLMODE
 70
1
  9
$QTEXTMODE
 70
0
  9
$MIRRTEXT
 70
1
  9
$LTSCALE
 40
1.0
  9
$ATTMODE
 70
1
  9
$TEXTSIZE
 40
2.5
  9
$TRACEWID
 40
1.0
  9
$TEXTSTYLE
  7
Standard
  9
$CLAYER
  8
0
  9
$CELTYPE
  6
ByLayer
  9
$CECOLOR
 62
256
  9
$CELTSCALE
 40
1.0
  9
$DISPSILH
 70
0
  9
$DIMSCALE
 40
1.0
  9
$DIMASZ
 40
2.5
  9
$DIMEXO
 40
0.625
  9
$DIMDLI
 40
3.75
  9
$DIMRND
 40
0.0
  9
$DIMDLE
 40
0.0
  9
$DIMEXE
 40
1.25
  9
$DIMTP
 40
0.0
  9
$DIMTM
 40
0.0
  9
$DIMTXT
 40
2.5
  9
$DIMCEN
 40
2.5
  9
$DIMTSZ
 40
0.0
  9
$DIMTOL
 70
0
  9
$DIMLIM
 70
0
  9
$DIMTIH
 70
0
  9
$DIMTOH
 70
0
  9
$DIMSE1
 70
0
  9
$DIMSE2
 70
0
  9
$DIMTAD
 70
1
  9
$DIMZIN
 70
8
  9
$DIMBLK
  1

  9
$DIMASO
 70
1
  9
$DIMSHO
 70
1
  9
$DIMPOST
  1

  9
$DIMAPOST
  1

  9
$DIMALT
 70
0
  9
$DIMALTD
 70
3
  9
$DIMALTF
 40
0.03937007874
  9
$DIMLFAC
 40
1.0
  9
$DIMTOFL
 70
1
  9
$DIMTVP
 40
0.0
  9
$DIMTIX
 70
0
  9
$DIMSOXD
 70
0
  9
$DIMSAH
 70
0
  9
$DIMBLK1
  1

  9
$DIMBLK2
  1

  9
$DIMSTYLE
  2
ISO-25
  9
$DIMCLRD
 70
0
  9
$DIMCLRE
 70
0
  9
$DIMCLRT
 70
0
  9
$DIMTFAC
 40
1.0
  9
$DIMGAP
 40
0.625
  9
$DIMJUST
 70
0
  9
$DIMSD1
 70
0
  9
$DIMSD2
 70
0
  9
$DIMTOLJ
 70
0
  9
$DIMTZIN
 70
8
  9
$DIMALTZ
 70
0
  9
$DIMALTTZ
 70
0
  9
$DIMUPT
 70
0
  9
$DIMDEC
 70
2
  9
$DIMTDEC
 70
2
  9
$DIMALTU
 70
2
  9
$DIMALTTD
 70
3
  9
$DIMTXSTY
  7
Standard
  9
$DIMAUNIT
 70
0
  9
$DIMADEC
 70
0
  9
$DIMALTRND
 40
0.0
  9
$DIMAZIN
 70
0
  9
$DIMDSEP
 70
44
  9
$DIMATFIT
 70
3
  9
$DIMFRAC
 70
0
  9
$DIMLDRBLK
  1

  9
$DIMLUNIT
 70
2
  9
$DIMLWD
 70
-2
  9
$DIMLWE
 70
-2
  9
$DIMTMOVE
 70
0
  9
$DIMFXL
 40
1.0
  9
$DIMFXLON
 70
0
  9
$DIMJOGANG
 40
0.785398163397
  9
$DIMTFILL
 70
0
  9
$DIMTFILLCLR
 70
0
  9
$DIMARCSYM
 70
0
  9
$DIMLTYPE
  6

  9
$DIMLTEX1
  6

  9
$DIMLTEX2
  6

  9
$DIMTXTDIRECTION
 70
0
  9
$LUNITS
 70
2
  9
$LUPREC
 70
4
  9
$SKETCHINC
 40
1.0
  9
$FILLETRAD
 40
10.0
  9
$AUNITS
 70
0
  9
$AUPREC
 70
2
  9
$MENU
  1
.
  9
$ELEVATION
 40
0.0
  9
$PELEVATION
 40
0.0
  9
$THICKNESS
 40
0.0
  9
$LIMCHECK
 70
0
  9
$CHAMFERA
 40
0.0
  9
$CHAMFERB
 40
0.0
  9
$CHAMFERC
 40
0.0
  9
$CHAMFERD
 40
0.0
  9
$SKPOLY
 70
0
  9
$TDCREATE
 40
2460965.628599537
  9
$TDUCREATE
 40
2458532.153996898
  9
$TDUPDATE
 40
2460965.628599537
  9
$TDUUPDATE
 40
2458532.1544311
  9
$TDINDWG
 40
0.0
  9
$TDUSRTIMER
 40
0.0
  9
$USRTIMER
 70
1
  9
$ANGBASE
 50
0.0
  9
$ANGDIR
 70
0
  9
$PDMODE
 70
0
  9
$PDSIZE
 40
0.0
  9
$PLINEWID
 40
0.0
  9
$SPLFRAME
 70
0
  9
$SPLINETYPE
 70
6
  9
$SPLINESEGS
 70
8
  9
$HANDSEED
  5
AA
  9
$SURFTAB1
 70
6
  9
$SURFTAB2
 70
6
  9
$SURFTYPE
 70
6
  9
$SURFU
 70
6
  9
$SURFV
 70
6
  9
$UCSBASE
  2

  9
$UCSNAME
  2

  9
$UCSORG
 10
0.0
 20
0.0
 30
0.0
  9
$UCSXDIR
 10
1.0
 20
0.0
 30
0.0
  9
$UCSYDIR
 10
0.0
 20
1.0
 30
0.0
  9
$UCSORTHOREF
  2

  9
$UCSORTHOVIEW
 70
0
  9
$UCSORGTOP
 10
0.0
 20
0.0
 30
0.0
  9
$UCSORGBOTTOM
 10
0.0
 20
0.0
 30
0.0
  9
$UCSORGLEFT
 10
0.0
 20
0.0
 30
0.0
  9
$UCSORGRIGHT
 10
0.0
 20
0.0
 30
0.0
  9
$UCSORGFRONT
 10
0.0
 20
0.0
 30
0.0
  9
$UCSORGBACK
 10
0.0
 20
0.0
 30
0.0
  9
$PUCSBASE
  2

  9
$PUCSNAME
  2

  9
$PUCSORG
 10
0.0
 20
0.0
 30
0.0
  9
$PUCSXDIR
 10
1.0
 20
0.0
 30
0.0
  9
$PUCSYDIR
 10
0.0
 20
1.0
 30
0.0
  9
$PUCSORTHOREF
  2

  9
$PUCSORTHOVIEW
 70
0
  9
$PUCSORGTOP
 10
0.0
 20
0.0
 30
0.0
  9
$PUCSORGBOTTOM
 10
0.0
 20
0.0
 30
0.0
  9
$PUCSORGLEFT
 10
0.0
 20
0.0
 30
0.0
  9
$PUCSORGRIGHT
 10
0.0
 20
0.0
 30
0.0
  9
$PUCSORGFRONT
 10
0.0
 20
0.0
 30
0.0
  9
$PUCSORGBACK
 10
0.0
 20
0.0
 30
0.0
  9
$USERI1
 70
0
  9
$USERI2
 70
0
  9
$USERI3
 70
0
  9
$USERI4
 70
0
  9
$USERI5
 70
0
  9
$USERR1
 40
0.0
  9
$USERR2
 40
0.0
  9
$USERR3
 40
0.0
  9
$USERR4
 40
0.0
  9
$USERR5
 40
0.0
  9
$WORLDVIEW
 70
1
  9
$SHADEDGE
 70
3
  9
$SHADEDIF
 70
70
  9
$TILEMODE
 70
1
  9
$MAXACTVP
 70
64
  9
$PINSBASE
 10
0.0
 20
0.0
 30
0.0
  9
$PLIMCHECK
 70
0
  9
$PEXTMIN
 10
1e+20
 20
1e+20
 30
1e+20
  9
$PEXTMAX
 10
-1e+20
 20
-1e+20
 30
-1e+20
  9
$PLIMMIN
 10
0.0
 20
0.0
  9
$PLIMMAX
 10
420.0
 20
297.0
  9
$UNITMODE
 70
0
  9
$VISRETAIN
 70
1
  9
$PLINEGEN
 70
0
  9
$PSLTSCALE
 70
1
  9
$TREEDEPTH
 70
3020
  9
$CMLSTYLE
  2
Standard
  9
$CMLJUST
 70
0
  9
$CMLSCALE
 40
20.0
  9
$PROXYGRAPHICS
 70
1
  9
$MEASUREMENT
 70
1
  9
$CELWEIGHT
370
-1
  9
$ENDCAPS
280
0
  9
$JOINSTYLE
280
0
  9
$LWDISPLAY
290
0
  9
$INSUNITS
 70
6
  9
$HYPERLINKBASE
  1

  9
$STYLESHEET
  1

  9
$XEDIT
290
1
  9
$CEPSNTYPE
380
0
  9
$PSTYLEMODE
290
1
  9
$FINGERPRINTGUID
  2
{1F1147C2-A159-4C27-8D29-9F10602DC054}
  9
$VERSIONGUID
  2
{D931241E-AA48-408E-B5E2-604921CCD218}
  9
$EXTNAMES
290
1
  9
$PSVPSCALE
 40
0.0
  9
$OLESTARTUP
290
0
  9
$SORTENTS
280
127
  9
$INDEXCTL
280
0
  9
$HIDETEXT
280
1
  9
$XCLIPFRAME
280
1
  9
$HALOGAP
280
0
  9
$OBSCOLOR
 70
257
  9
$OBSLTYPE
280
0
  9
$INTERSECTIONDISPLAY
280
0
  9
$INTERSECTIONCOLOR
 70
257
  9
$DIMASSOC
280
2
  9
$PROJECTNAME
  1

  9
$CAMERADISPLAY
290
0
  9
$LENSLENGTH
 40
50.0
  9
$CAMERAHEIGHT
 40
0.0
  9
$STEPSPERSEC
 40
24.0
  9
$STEPSIZE
 40
100.0
  9
$3DDWFPREC
 40
2.0
  9
$PSOLWIDTH
 40
0.005
  9
$PSOLHEIGHT
 40
0.08
  9
$LOFTANG1
 40
1.570796326795
  9
$LOFTANG2
 40
1.570796326795
  9
$LOFTMAG1
 40
0.0
  9
$LOFTMAG2
 40
0.0
  9
$LOFTPARAM
 70
7
  9
$LOFTNORMALS
280
1
  9
$LATITUDE
 40
37.795
  9
$LONGITUDE
 40
-122.394
  9
$NORTHDIRECTION
 40
0.0
  9
$TIMEZONE
 70
-8000
  9
$LIGHTGLYPHDISPLAY
280
1
  9
$TILEMODELIGHTSYNCH
280
1
  9
$CMATERIAL
347
20
  9
$SOLIDHIST
280
0
  9
$SHOWHIST
280
1
  9
$DWFFRAME
280
2
  9
$DGNFRAME
280
2
  9
$REALWORLDSCALE
290
1
  9
$INTERFERECOLOR
 62
256
  9
$CSHADOW
280
0
  9
$SHADOWPLANELOCATION
 40
0.0
  0
ENDSEC
  0
SECTION
  2
CLASSES
  0
CLASS
  1
ACDBDICTIONARYWDFLT
  2
AcDbDictionaryWithDefault
  3
ObjectDBX Classes
 90
0
 91
0
280
0
281
0
  0
CLASS
  1
SUN
  2
AcDbSun
  3
SCENEOE
 90
1153
 91
0
280
0
281
0
  0
CLASS
  1
VISUALSTYLE
  2
AcDbVisualStyle
  3
ObjectDBX Classes
 90
4095
 91
0
280
0
281
0
  0
CLASS
  1
MATERIAL
  2
AcDbMaterial
  3
ObjectDBX Classes
 90
1153
 91
0
280
0
281
0
  0
CLASS
  1
SCALE
  2
AcDbScale
  3
ObjectDBX Classes
 90
1153
 91
0
280
0
281
0
  0
CLASS
  1
TABLESTYLE
  2
AcDbTableStyle
  3
ObjectDBX Classes
 90
4095
 91
0
280
0
281
0
  0
CLASS
  1
MLEADERSTYLE
  2
AcDbMLeaderStyle
  3
ACDB_MLEADERSTYLE_CLASS
 90
4095
 91
0
280
0
281
0
  0
CLASS
  1
DICTIONARYVAR
  2
AcDbDictionaryVar
  3
ObjectDBX Classes
 90
0
 91
0
280
0
281
0
  0
CLASS
  1
CELLSTYLEMAP
  2
AcDbCellStyleMap
  3
ObjectDBX Classes
 90
1152
 91
0
280
0
281
0
  0
CLASS
  1
MENTALRAYRENDERSETTINGS
  2
AcDbMentalRayRenderSettings
  3
SCENEOE
 90
1024
 91
0
280
0
281
0
  0
CLASS
  1
ACDBDETAILVIEWSTYLE
  2
AcDbDetailViewStyle
  3
ObjectDBX Classes
 90
1025
 91
0
280
0
281
0
  0
CLASS
  1
ACDBSECTIONVIEWSTYLE
  2
AcDbSectionViewStyle
  3
ObjectDBX Classes
 90
1025
 91
0
280
0
281
0
  0
CLASS
  1
RASTERVARIABLES
  2
AcDbRasterVariables
  3
ISM
 90
0
 91
0
280
0
281
0
  0
CLASS
  1
ACDBPLACEHOLDER
  2
AcDbPlaceHolder
  3
ObjectDBX Classes
 90
0
 91
0
280
0
281
0
  0
CLASS
  1
LAYOUT
  2
AcDbLayout
  3
ObjectDBX Classes
 90
0
 91
0
280
0
281
0
  0
ENDSEC
  0
SECTION
  2
TABLES
  0
TABLE
  2
VPORT
  5
8
330
0
100
AcDbSymbolTable
 70
1
  0
VPORT
  5
23
330
8
100
AcDbSymbolTableRecord
100
AcDbViewportTableRecord
  2
*Active
 70
0
 10
0.0
 20
0.0
 11
1.0
 21
1.0
 12
0.0
 22
0.0
 13
0.0
 23
0.0
 14
0.5
 24
0.5
 15
0.5
 25
0.5
 16
0.0
 26
0.0
 36
1.0
 17
0.0
 27
0.0
 37
0.0
 40
1000.0
 41
1.34
 42
50.0
 43
0.0
 44
0.0
 50
0.0
 51
0.0
 71
0
 72
1000
 73
1
 74
3
 75
0
 76
0
 77
0
 78
0
281
0
 65
0
146
0.0
  0
ENDTAB
  0
TABLE
  2
LTYPE
  5
2
330
0
100
AcDbSymbolTable
 70
3
  0
LTYPE
  5
24
330
2
100
AcDbSymbolTableRecord
100
AcDbLinetypeTableRecord
  2
ByBlock
 70
0
  3

 72
65
 73
0
 40
0.0
  0
LTYPE
  5
25
330
2
100
AcDbSymbolTableRecord
100
AcDbLinetypeTableRecord
  2
ByLayer
 70
0
  3

 72
65
 73
0
 40
0.0
  0
LTYPE
  5
26
330
2
100
AcDbSymbolTableRecord
100
AcDbLinetypeTableRecord
  2
Continuous
 70
0
  3

 72
65
 73
0
 40
0.0
  0
ENDTAB
  0
TABLE
  2
LAYER
  5
1
330
0
100
AcDbSymbolTable
 70
4
  0
LAYER
  5
27
330
1
100
AcDbSymbolTableRecord
100
AcDbLayerTableRecord
  2
0
 70
0
 62
7
  6
Continuous
370
-3
390
13
347
21
  0
LAYER
  5
28
330
1
100
AcDbSymbolTableRecord
100
AcDbLayerTableRecord
  2
Defpoints
 70
0
 62
7
  6
Continuous
290
0
370
-3
390
13
347
21
  0
LAYER
  5
2F
330
1
100
AcDbSymbolTableRecord
100
AcDbLayerTableRecord
  2
BOUNDARY
 70
0
 62
1
  6
Continuous
370
-3
390
13
347
21
  0
LAYER
  5
32
330
1
100
AcDbSymbolTableRecord
100
AcDbLayerTableRecord
  2
ELLIPSES
 70
0
 62
5
  6
Continuous
370
-3
390
13
347
21
  0
ENDTAB
  0
TABLE
  2
STYLE
  5
5
330
0
100
AcDbSymbolTable
 70
1
  0
STYLE
  5
29
330
5
100
AcDbSymbolTableRecord
100
AcDbTextStyleTableRecord
  2
Standard
 70
0
 40
0.0
 41
1.0
 50
0.0
 71
0
 42
2.5
  3
txt
  4

  0
ENDTAB
  0
TABLE
  2
VIEW
  5
7
330
0
100
AcDbSymbolTable
 70
0
  0
ENDTAB
  0
TABLE
  2
UCS
  5
6
330
0
100
AcDbSymbolTable
 70
0
  0
ENDTAB
  0
TABLE
  2
APPID
  5
3
330
0
100
AcDbSymbolTable
 70
3
  0
APPID
  5
2A
330
3
100
AcDbSymbolTableRecord
100
AcDbRegAppTableRecord
  2
ACAD
 70
0
  0
APPID
  5
A7
330
3
100
AcDbSymbolTableRecord
100
AcDbRegAppTableRecord
  2
HATCHBACKGROUNDCOLOR
 70
0
  0
APPID
  5
A8
330
3
100
AcDbSymbolTableRecord
100
AcDbRegAppTableRecord
  2
EZDXF
 70
0
  0
ENDTAB
  0
TABLE
  2
DIMSTYLE
  5
4
330
0
100
AcDbSymbolTable
 70
1
100
AcDbDimStyleTable
  0
DIMSTYLE
105
2B
330
4
100
AcDbSymbolTableRecord
100
AcDbDimStyleTableRecord
  2
Standard
 70
0
 40
1.0
 41
2.5
 42
0.625
 43
3.75
 44
1.25
 45
0.0
 46
0.0
 47
0.0
 48
0.0
 49
2.5
140
2.5
141
2.5
142
0.0
143
0.03937007874
144
1.0
145
0.0
146
1.0
147
0.625
148
0.0
 69
0
 70
0
 71
0
 72
0
 73
0
 74
0
 75
0
 76
0
 77
1
 78
8
 79
3
170
0
171
3
172
1
173
0
174
0
175
0
176
0
177
0
178
0
179
2
271
2
272
2
273
2
274
3
275
0
276
0
277
2
278
44
279
0
280
0
281
0
282
0
283
0
284
8
285
0
286
0
288
0
289
3
290
0
371
-2
372
-2
  0
ENDTAB
  0
TABLE
  2
BLOCK_RECORD
  5
9
330
0
100
AcDbSymbolTable
 70
2
  0
BLOCK_RECORD
  5
17
330
9
100
AcDbSymbolTableRecord
100
AcDbBlockTableRecord
  2
*Model_Space
340
1A
 70
0
280
1
281
0
  0
BLOCK_RECORD
  5
1B
330
9
100
AcDbSymbolTableRecord
100
AcDbBlockTableRecord
  2
*Paper_Space
340
1E
 70
0
280
1
281
0
  0
ENDTAB
  0
ENDSEC
  0
SECTION
  2
BLOCKS
  0
BLOCK
  5
18
330
17
100
AcDbEntity
  8
0
100
AcDbBlockBegin
  2
*Model_Space
 70
0
 10
0.0
 20
0.0
 30
0.0
  3
*Model_Space
  1

  0
ENDBLK
  5
19
330
17
100
AcDbEntity
  8
0
100
AcDbBlockEnd
  0
BLOCK
  5
1C
330
1B
100
AcDbEntity
  8
0
100
AcDbBlockBegin
  2
*Paper_Space
 70
0
 10
0.0
 20
0.0
 30
0.0
  3
*Paper_Space
  1

  0
ENDBLK
  5
1D
330
1B
100
AcDbEntity
  8
0
100
AcDbBlockEnd
  0
ENDSEC
  0
SECTION
  2
ENTITIES
  0
LWPOLYLINE
  5
30
330
17
100
AcDbEntity
  8
BOUNDARY
100
AcDbPolyline
 90
5
 70
0
 10
0.0
 20
0.0
 10
1.0
 20
0.0
 10
1.0
 20
1.0
 10
0.0
 20
1.0
 10
0.0
 20
0.0
  0
TEXT
  5
31
330
17
100
AcDbEntity
  8
0
100
AcDbText
 10
0.5
 20
-0.05
 30
0.0
 40
0.02
  1
Lx=1.0, Ly=1.0
  7
OpenSans
 72
1
 11
0.5
 21
-0.05
 31
0.0
100
AcDbText
 73
3
  0
ELLIPSE
  5
33
330
17
100
AcDbEntity
  8
ELLIPSES
100
AcDbEllipse
 10
0.18486665255245563
 20
0.5145646446265324
 30
0.0
 11
-0.030419564425738142
 21
0.05368880453080977
 31
0.0
 40
0.3989597673956716
 41
0.0
 42
6.283185307179586
  0
ELLIPSE
  5
34
330
17
100
AcDbEntity
  8
ELLIPSES
100
AcDbEllipse
 10
0.7956319517973136
 20
0.6500387617801071
 30
0.0
 11
0.023114429990929008
 21
0.04438000431035219
 31
0.0
 40
0.2640844362339105
 41
0.0
 42
6.283185307179586
  0
ELLIPSE
  5
35
330
17
100
AcDbEntity
  8
ELLIPSES
100
AcDbEllipse
 10
0.8841327782149954
 20
0.8421278511027063
 30
0.0
 11
0.043498025010464535
 21
0.03582238936175818
 31
0.0
 40
0.5712393029852524
 41
0.0
 42
6.283185307179586
  0
ELLIPSE
  5
36
330
17
100
AcDbEntity
  8
ELLIPSES
100
AcDbEllipse
 10
0.13991255659617324
 20
0.7679893780242383
 30
0.0
 11
0.03153397047810766
 21
0.01624023372751817
 31
0.0
 40
0.439142590150024
 41
0.0
 42
6.283185307179586
  0
ELLIPSE
  5
37
330
17
100
AcDbEntity
  8
ELLIPSES
100
AcDbEllipse
 10
0.32553090891948483
 20
0.34782458840228
 30
0.0
 11
0.062009991967654346
 21
0.03945357861722089
 31
0.0
 40
0.4552104839970973
 41
0.0
 42
6.283185307179586
  0
ELLIPSE
  5
38
330
17
100
AcDbEntity
  8
ELLIPSES
100
AcDbEllipse
 10
0.725310489008905
 20
0.45861556675368254
 30
0.0
 11
-0.049351958732607115
 21
0.0596233230049511
 31
0.0
 40
0.1926856855360841
 41
0.0
 42
6.283185307179586
  0
ELLIPSE
  5
39
330
17
100
AcDbEntity
  8
ELLIPSES
100
AcDbEllipse
 10
0.5313515560190935
 20
0.5274078330228372
 30
0.0
 11
-0.024356328841589052
 21
-0.01504455621145047
 31
0.0
 40
0.9876230022062684
 41
0.0
 42
6.283185307179586
  0
ELLIPSE
  5
3A
330
17
100
AcDbEntity
  8
ELLIPSES
100
AcDbEllipse
 10
0.6115159268287217
 20
0.40386502807386926
 30
0.0
 11
0.06607467727999451
 21
0.018065694828313612
 31
0.0
 40
0.21738284424434431
 41
0.0
 42
6.283185307179586
  0
ELLIPSE
  5
3B
330
17
100
AcDbEntity
  8
ELLIPSES
100
AcDbEllipse
 10
0.1384031482345149
 20
0.07698677784716176
 30
0.0
 11
-0.016490196468090683
 21
0.024980922310289692
 31
0.0
 40
0.3973154629885029
 41
0.0
 42
6.283185307179586
  0
ELLIPSE
  5
3C
330
17
100
AcDbEntity
  8
ELLIPSES
100
AcDbEllipse
 10
0.6406363872795944
 20
0.12503637552828967
 30
0.0
 11
0.026114262170136557
 21
0.0350492766576468
 31
0.0
 40
0.7816567026946798
 41
0.0
 42
6.283185307179586
  0
ELLIPSE
  5
3D
330
17
100
AcDbEntity
  8
ELLIPSES
100
AcDbEllipse
 10
0.16945288533342132
 20
0.40054365111342516
 30
0.0
 11
0.0365642850437715
 21
0.002123664980587124
 31
0.0
 40
0.5070334299433883
 41
0.0
 42
6.283185307179586
  0
ELLIPSE
  5
3E
330
17
100
AcDbEntity
  8
ELLIPSES
100
AcDbEllipse
 10
0.8239920657084725
 20
0.5301035390967546
 30
0.0
 11
-0.05861259377372138
 21
0.05363752155083552
 31
0.0
 40
0.43223049660418067
 41
0.0
 42
6.283185307179586
  0
ELLIPSE
  5
3F
330
17
100
AcDbEntity
  8
ELLIPSES
100
AcDbEllipse
 10
0.10423181951801794
 20
0.4901122438104026
 30
0.0
 11
-0.013385638877948379
 21
0.06479006046672132
 31
0.0
 40
0.49393718802924624
 41
0.0
 42
6.283185307179586
  0
ELLIPSE
  5
40
330
17
100
AcDbEntity
  8
ELLIPSES
100
AcDbEllipse
 10
0.6029311499322324
 20
0.7132337373060887
 30
0.0
 11
-0.03810571159403878
 21
0.055302995350329766
 31
0.0
 40
0.3008863371527062
 41
0.0
 42
6.283185307179586
  0
ELLIPSE
  5
41
330
17
100
AcDbEntity
  8
ELLIPSES
100
AcDbEllipse
 10
0.7981988850883774
 20
0.10317231377376859
 30
0.0
 11
0.03011610757565203
 21
0.04674560462355629
 31
0.0
 40
0.38015224817209786
 41
0.0
 42
6.283185307179586
  0
ELLIPSE
  5
42
330
17
100
AcDbEntity
  8
ELLIPSES
100
AcDbEllipse
 10
0.3015804743260955
 20
0.7818393101136053
 30
0.0
 11
-0.05681941732630794
 21
0.04550088959203998
 31
0.0
 40
0.18686874484870694
 41
0.0
 42
6.283185307179586
  0
ELLIPSE
  5
43
330
17
100
AcDbEntity
  8
ELLIPSES
100
AcDbEllipse
 10
0.04047611277964971
 20
0.5369720149674552
 30
0.0
 11
-0.02532978463484901
 21
0.0015750773316208163
 31
0.0
 40
0.8798062878339833
 41
0.0
 42
6.283185307179586
  0
ELLIPSE
  5
44
330
17
100
AcDbEntity
  8
ELLIPSES
100
AcDbEllipse
 10
0.3764488066877034
 20
0.5119498249502062
 30
0.0
 11
-0.014444281322642655
 21
0.07090342648797437
 31
0.0
 40
0.462430969353772
 41
0.0
 42
6.283185307179586
  0
ELLIPSE
  5
45
330
17
100
AcDbEntity
  8
ELLIPSES
100
AcDbEllipse
 10
0.4017266558547317
 20
0.037626885321779005
 30
0.0
 11
-0.005800407368893654
 21
0.025517273202135114
 31
0.0
 40
0.8314799249811922
 41
0.0
 42
6.283185307179586
  0
ELLIPSE
  5
46
330
17
100
AcDbEntity
  8
ELLIPSES
100
AcDbEllipse
 10
0.83467423987364
 20
0.2985085928342
 30
0.0
 11
0.03443053000586047
 21
0.04445927409188092
 31
0.0
 40
0.6626294323321751
 41
0.0
 42
6.283185307179586
  0
ELLIPSE
  5
47
330
17
100
AcDbEntity
  8
ELLIPSES
100
AcDbEllipse
 10
0.7624375242571935
 20
0.18864720501445764
 30
0.0
 11
0.041084225160523825
 21
0.0521918838513902
 31
0.0
 40
0.4395404891492599
 41
0.0
 42
6.283185307179586
  0
ELLIPSE
  5
48
330
17
100
AcDbEntity
  8
ELLIPSES
100
AcDbEllipse
 10
0.958152531912677
 20
0.06924825322642053
 30
0.0
 11
-0.005991065635209206
 21
0.030248098333318495
 31
0.0
 40
0.33745248796508054
 41
0.0
 42
6.283185307179586
  0
ELLIPSE
  5
49
330
17
100
AcDbEntity
  8
ELLIPSES
100
AcDbEllipse
 10
0.5523261011978254
 20
0.8818022769197805
 30
0.0
 11
-0.046074956223356646
 21
0.010726396873285773
 31
0.0
 40
0.6842325230787616
 41
0.0
 42
6.283185307179586
  0
ELLIPSE
  5
4A
330
17
100
AcDbEntity
  8
ELLIPSES
100
AcDbEllipse
 10
0.297705610954329
 20
0.6687775942751469
 30
0.0
 11
0.03807197998457668
 21
0.010854934630141033
 31
0.0
 40
0.5846023424975577
 41
0.0
 42
6.283185307179586
  0
ELLIPSE
  5
4B
330
17
100
AcDbEntity
  8
ELLIPSES
100
AcDbEllipse
 10
0.09999514692013245
 20
0.18624195874248317
 30
0.0
 11
0.019190509211427162
 21
0.04452660418162845
 31
0.0
 40
0.44181388060183036
 41
0.0
 42
6.283185307179586
  0
ELLIPSE
  5
4C
330
17
100
AcDbEntity
  8
ELLIPSES
100
AcDbEllipse
 10
0.9346229193683157
 20
0.5974288593689652
 30
0.0
 11
-0.036443599087016366
 21
0.0009776345092075282
 31
0.0
 40
0.3266437732718786
 41
0.0
 42
6.283185307179586
  0
ELLIPSE
  5
4D
330
17
100
AcDbEntity
  8
ELLIPSES
100
AcDbEllipse
 10
0.1593713111275777
 20
0.3390908207968595
 30
0.0
 11
-0.04733850728338777
 21
0.008461055564335502
 31
0.0
 40
0.5181272795422902
 41
0.0
 42
6.283185307179586
  0
ELLIPSE
  5
4E
330
17
100
AcDbEntity
  8
ELLIPSES
100
AcDbEllipse
 10
0.1490962242762486
 20
0.842468379607092
 30
0.0
 11
0.018403457665959654
 21
0.03278206544496215
 31
0.0
 40
0.8499845634871236
 41
0.0
 42
6.283185307179586
  0
ELLIPSE
  5
4F
330
17
100
AcDbEntity
  8
ELLIPSES
100
AcDbEllipse
 10
0.3554933535790076
 20
0.8873094240552764
 30
0.0
 11
-0.055412889793570466
 21
0.01839578941092966
 31
0.0
 40
0.5980676150464765
 41
0.0
 42
6.283185307179586
  0
ELLIPSE
  5
50
330
17
100
AcDbEntity
  8
ELLIPSES
100
AcDbEllipse
 10
0.45871188902673143
 20
0.8735617575605668
 30
0.0
 11
0.03523163293493139
 21
0.020288286810977534
 31
0.0
 40
0.5069854212439131
 41
0.0
 42
6.283185307179586
  0
ELLIPSE
  5
51
330
17
100
AcDbEntity
  8
ELLIPSES
100
AcDbEllipse
 10
0.49491037492848156
 20
0.20782237760755762
 30
0.0
 11
-0.047113968702520825
 21
0.059014335534339254
 31
0.0
 40
0.4286026842712878
 41
0.0
 42
6.283185307179586
  0
ELLIPSE
  5
52
330
17
100
AcDbEntity
  8
ELLIPSES
100
AcDbEllipse
 10
0.1960188485099317
 20
0.6971881843506602
 30
0.0
 11
-0.009717059716938788
 21
0.04666624355627512
 31
0.0
 40
0.7471272049820615
 41
0.0
 42
6.283185307179586
  0
ELLIPSE
  5
53
330
17
100
AcDbEntity
  8
ELLIPSES
100
AcDbEllipse
 10
0.05243531660316135
 20
0.7508599416560109
 30
0.0
 11
0.03419051012311451
 21
0.009686056342583398
 31
0.0
 40
0.8405755385531175
 41
0.0
 42
6.283185307179586
  0
ELLIPSE
  5
54
330
17
100
AcDbEntity
  8
ELLIPSES
100
AcDbEllipse
 10
0.10041251175864489
 20
0.873259005223195
 30
0.0
 11
0.011268012548632085
 21
0.073968550618459
 31
0.0
 40
0.1400596917962402
 41
0.0
 42
6.283185307179586
  0
ELLIPSE
  5
55
330
17
100
AcDbEntity
  8
ELLIPSES
100
AcDbEllipse
 10
0.49245224009833694
 20
0.30885130941963174
 30
0.0
 11
-0.024425932706363503
 21
-0.00612883098869316
 31
0.0
 40
0.9544496995359154
 41
0.0
 42
6.283185307179586
  0
ELLIPSE
  5
56
330
17
100
AcDbEntity
  8
ELLIPSES
100
AcDbEllipse
 10
0.47468911943533815
 20
0.5592493646095985
 30
0.0
 11
-0.031109082618883205
 21
-0.02272786779053832
 31
0.0
 40
0.8603510281496135
 41
0.0
 42
6.283185307179586
  0
ELLIPSE
  5
57
330
17
100
AcDbEntity
  8
ELLIPSES
100
AcDbEllipse
 10
0.46573627511679855
 20
0.8044465054708354
 30
0.0
 11
0.035123112787578833
 21
0.03989222438646273
 31
0.0
 40
0.21387469196618303
 41
0.0
 42
6.283185307179586
  0
ELLIPSE
  5
58
330
17
100
AcDbEntity
  8
ELLIPSES
100
AcDbEllipse
 10
0.6232853382798351
 20
0.5793490302719881
 30
0.0
 11
-0.024735233070082772
 21
0.01924988383252761
 31
0.0
 40
0.6760442129756083
 41
0.0
 42
6.283185307179586
  0
ELLIPSE
  5
59
330
17
100
AcDbEntity
  8
ELLIPSES
100
AcDbEllipse
 10
0.7005175074677346
 20
0.7665732232292413
 30
0.0
 11
0.009412427986265945
 21
0.04321400446134324
 31
0.0
 40
0.6763510962679087
 41
0.0
 42
6.283185307179586
  0
ELLIPSE
  5
5A
330
17
100
AcDbEntity
  8
ELLIPSES
100
AcDbEllipse
 10
0.2753178199042326
 20
0.4473691610962403
 30
0.0
 11
0.04443737106675482
 21
0.06223862713344064
 31
0.0
 40
0.266012425890057
 41
0.0
 42
6.283185307179586
  0
ELLIPSE
  5
5B
330
17
100
AcDbEntity
  8
ELLIPSES
100
AcDbEllipse
 10
0.3627209268628854
 20
0.2065313693609876
 30
0.0
 11
-0.04397202578208632
 21
0.003470740568854651
 31
0.0
 40
0.8000905570863525
 41
0.0
 42
6.283185307179586
  0
ELLIPSE
  5
5C
330
17
100
AcDbEntity
  8
ELLIPSES
100
AcDbEllipse
 10
0.529210538141868
 20
0.4805315443445837
 30
0.0
 11
-0.04300461060457962
 21
0.0013142491867707583
 31
0.0
 40
0.23439619756688096
 41
0.0
 42
6.283185307179586
  0
ELLIPSE
  5
5D
330
17
100
AcDbEntity
  8
ELLIPSES
100
AcDbEllipse
 10
0.1739714322466923
 20
0.6114573082231065
 30
0.0
 11
-0.031263399177361324
 21
0.06585777560858624
 31
0.0
 40
0.19864118857722998
 41
0.0
 42
6.283185307179586
  0
ELLIPSE
  5
5E
330
17
100
AcDbEntity
  8
ELLIPSES
100
AcDbEllipse
 10
0.6454060072984417
 20
0.4964464034165995
 30
0.0
 11
-0.019651825204562698
 21
0.020536475339861426
 31
0.0
 40
0.9233928297724445
 41
0.0
 42
6.283185307179586
  0
ELLIPSE
  5
5F
330
17
100
AcDbEntity
  8
ELLIPSES
100
AcDbEllipse
 10
0.876367854056933
 20
0.09203270834968585
 30
0.0
 11
0.003742447361186751
 21
0.04917337360154489
 31
0.0
 40
0.3446870055336898
 41
0.0
 42
6.283185307179586
  0
ELLIPSE
  5
60
330
17
100
AcDbEntity
  8
ELLIPSES
100
AcDbEllipse
 10
0.08723290765754668
 20
0.6399184460549704
 30
0.0
 11
-0.04841675432771937
 21
0.007937869363699137
 31
0.0
 40
0.529424259351669
 41
0.0
 42
6.283185307179586
  0
ELLIPSE
  5
61
330
17
100
AcDbEntity
  8
ELLIPSES
100
AcDbEllipse
 10
0.7520340924416907
 20
0.8375835778727105
 30
0.0
 11
-0.009945531260293022
 21
-0.03776851728089795
 31
0.0
 40
0.5437308504936401
 41
0.0
 42
6.283185307179586
  0
ELLIPSE
  5
62
330
17
100
AcDbEntity
  8
ELLIPSES
100
AcDbEllipse
 10
0.23682901664675354
 20
0.9089625753682788
 30
0.0
 11
-0.050310017080789055
 21
0.015939628204832808
 31
0.0
 40
0.3488159318102474
 41
0.0
 42
6.283185307179586
  0
ELLIPSE
  5
63
330
17
100
AcDbEntity
  8
ELLIPSES
100
AcDbEllipse
 10
0.6803409449569855
 20
0.05499165438623015
 30
0.0
 11
-0.019242608735817648
 21
0.014596955928418412
 31
0.0
 40
0.43114286731468143
 41
0.0
 42
6.283185307179586
  0
ELLIPSE
  5
64
330
17
100
AcDbEntity
  8
ELLIPSES
100
AcDbEllipse
 10
0.25503614862468965
 20
0.5579818036636525
 30
0.0
 11
0.023843112518876507
 21
0.0277918615944206
 31
0.0
 40
0.5562997702863918
 41
0.0
 42
6.283185307179586
  0
ELLIPSE
  5
65
330
17
100
AcDbEntity
  8
ELLIPSES
100
AcDbEllipse
 10
0.8660587645676386
 20
0.9254077642892554
 30
0.0
 11
-0.01232629709112845
 21
0.03419357544245739
 31
0.0
 40
0.9409960538398947
 41
0.0
 42
6.283185307179586
  0
ELLIPSE
  5
66
330
17
100
AcDbEntity
  8
ELLIPSES
100
AcDbEllipse
 10
0.40527964103395564
 20
0.30119734217280725
 30
0.0
 11
0.03224560441373247
 21
0.0034942796690567144
 31
0.0
 40
0.8699344136504106
 41
0.0
 42
6.283185307179586
  0
ELLIPSE
  5
67
330
17
100
AcDbEntity
  8
ELLIPSES
100
AcDbEllipse
 10
0.11779934180098615
 20
0.13102090483489115
 30
0.0
 11
0.005121304807937787
 21
0.026314684658534888
 31
0.0
 40
0.4375277837946915
 41
0.0
 42
6.283185307179586
  0
ELLIPSE
  5
68
330
17
100
AcDbEntity
  8
ELLIPSES
100
AcDbEllipse
 10
0.46540389190349907
 20
0.9578139476613491
 30
0.0
 11
0.02893870690297582
 21
0.003413551009884899
 31
0.0
 40
0.932027569121568
 41
0.0
 42
6.283185307179586
  0
ELLIPSE
  5
69
330
17
100
AcDbEntity
  8
ELLIPSES
100
AcDbEllipse
 10
0.07584414039737608
 20
0.3421306369616431
 30
0.0
 11
-0.023200102612996015
 21
0.016051653614295183
 31
0.0
 40
0.7091900889894539
 41
0.0
 42
6.283185307179586
  0
ELLIPSE
  5
6A
330
17
100
AcDbEntity
  8
ELLIPSES
100
AcDbEllipse
 10
0.9417704908056865
 20
0.34126110878667515
 30
0.0
 11
0.04430101497696719
 21
0.007379096386606509
 31
0.0
 40
0.2804180923607095
 41
0.0
 42
6.283185307179586
  0
ELLIPSE
  5
6B
330
17
100
AcDbEntity
  8
ELLIPSES
100
AcDbEllipse
 10
0.5347576265231372
 20
0.1099762387613422
 30
0.0
 11
-0.0477691253270002
 21
0.003360875420557927
 31
0.0
 40
0.30987416600656886
 41
0.0
 42
6.283185307179586
  0
ELLIPSE
  5
6C
330
17
100
AcDbEntity
  8
ELLIPSES
100
AcDbEllipse
 10
0.4235469478745581
 20
0.6168423323447398
 30
0.0
 11
-0.006797660887975001
 21
0.031306896864615665
 31
0.0
 40
0.840774834583514
 41
0.0
 42
6.283185307179586
  0
ELLIPSE
  5
6D
330
17
100
AcDbEntity
  8
ELLIPSES
100
AcDbEllipse
 10
0.5156803823058279
 20
0.7305977523762752
 30
0.0
 11
-0.03467930644116216
 21
0.01810330736917772
 31
0.0
 40
0.5326819039737338
 41
0.0
 42
6.283185307179586
  0
ELLIPSE
  5
6E
330
17
100
AcDbEntity
  8
ELLIPSES
100
AcDbEllipse
 10
0.8858355982425696
 20
0.6919291666784025
 30
0.0
 11
-0.03970390345752338
 21
0.012417612469713207
 31
0.0
 40
0.4715829183296012
 41
0.0
 42
6.283185307179586
  0
ELLIPSE
  5
6F
330
17
100
AcDbEntity
  8
ELLIPSES
100
AcDbEllipse
 10
0.7857259030823325
 20
0.747165170601062
 30
0.0
 11
0.03424778572673279
 21
0.014722607603446392
 31
0.0
 40
0.611923738898373
 41
0.0
 42
6.283185307179586
  0
ELLIPSE
  5
70
330
17
100
AcDbEntity
  8
ELLIPSES
100
AcDbEllipse
 10
0.33600333172174135
 20
0.6286824510972242
 30
0.0
 11
0.059415050526840596
 21
0.03296377507866987
 31
0.0
 40
0.2116748096150953
 41
0.0
 42
6.283185307179586
  0
ELLIPSE
  5
71
330
17
100
AcDbEntity
  8
ELLIPSES
100
AcDbEllipse
 10
0.7242761066422321
 20
0.3244101617480459
 30
0.0
 11
-0.0330585400469287
 21
0.035176846986114466
 31
0.0
 40
0.5405844737726393
 41
0.0
 42
6.283185307179586
  0
ELLIPSE
  5
72
330
17
100
AcDbEntity
  8
ELLIPSES
100
AcDbEllipse
 10
0.24600299595425978
 20
0.21329102908796238
 30
0.0
 11
-0.050930121446841795
 21
0.052669265073405275
 31
0.0
 40
0.3354691126277373
 41
0.0
 42
6.283185307179586
  0
ELLIPSE
  5
73
330
17
100
AcDbEntity
  8
ELLIPSES
100
AcDbEllipse
 10
0.5840509560895768
 20
0.20757485431809736
 30
0.0
 11
0.03659213224375876
 21
0.02391952950244596
 31
0.0
 40
0.29233293098275565
 41
0.0
 42
6.283185307179586
  0
ELLIPSE
  5
74
330
17
100
AcDbEntity
  8
ELLIPSES
100
AcDbEllipse
 10
0.6604273509647596
 20
0.3129131239414349
 30
0.0
 11
-0.029903737278103824
 21
0.05894890026611003
 31
0.0
 40
0.21608418856130227
 41
0.0
 42
6.283185307179586
  0
ELLIPSE
  5
75
330
17
100
AcDbEntity
  8
ELLIPSES
100
AcDbEllipse
 10
0.13512585697231838
 20
0.28545584612184655
 30
0.0
 11
-0.03006988893197858
 21
0.013699173843500839
 31
0.0
 40
0.6171715364354652
 41
0.0
 42
6.283185307179586
  0
ELLIPSE
  5
76
330
17
100
AcDbEntity
  8
ELLIPSES
100
AcDbEllipse
 10
0.7191697434023896
 20
0.6469886620819383
 30
0.0
 11
0.05943933929653205
 21
0.011308571830435581
 31
0.0
 40
0.18090933400665973
 41
0.0
 42
6.283185307179586
  0
ELLIPSE
  5
77
330
17
100
AcDbEntity
  8
ELLIPSES
100
AcDbEllipse
 10
0.2176010292171273
 20
0.07984615426334771
 30
0.0
 11
0.028781630396863413
 21
0.02405790667626299
 31
0.0
 40
0.5318409987345016
 41
0.0
 42
6.283185307179586
  0
ELLIPSE
  5
78
330
17
100
AcDbEntity
  8
ELLIPSES
100
AcDbEllipse
 10
0.3464458868661461
 20
0.814457966836284
 30
0.0
 11
-0.006647553726624409
 21
0.03473552014917657
 31
0.0
 40
0.7588754302591914
 41
0.0
 42
6.283185307179586
  0
ELLIPSE
  5
79
330
17
100
AcDbEntity
  8
ELLIPSES
100
AcDbEllipse
 10
0.10092415585070452
 20
0.05324887981510991
 30
0.0
 11
-0.0316735613385725
 21
0.012805114707021562
 31
0.0
 40
0.37679186058262465
 41
0.0
 42
6.283185307179586
  0
ELLIPSE
  5
7A
330
17
100
AcDbEntity
  8
ELLIPSES
100
AcDbEllipse
 10
0.8195271883952447
 20
0.37978475534547496
 30
0.0
 11
-0.023609694036346673
 21
0.0010576347185511932
 31
0.0
 40
0.9582705535238669
 41
0.0
 42
6.283185307179586
  0
ELLIPSE
  5
7B
330
17
100
AcDbEntity
  8
ELLIPSES
100
AcDbEllipse
 10
0.48270495732276125
 20
0.638189133119298
 30
0.0
 11
-0.018803664924375914
 21
0.016796828271131863
 31
0.0
 40
0.8897028969556773
 41
0.0
 42
6.283185307179586
  0
ELLIPSE
  5
7C
330
17
100
AcDbEntity
  8
ELLIPSES
100
AcDbEllipse
 10
0.7232939751918124
 20
0.9169087251927251
 30
0.0
 11
0.03146084932249687
 21
0.058590797347448216
 31
0.0
 40
0.26385329672007024
 41
0.0
 42
6.283185307179586
  0
ELLIPSE
  5
7D
330
17
100
AcDbEntity
  8
ELLIPSES
100
AcDbEllipse
 10
0.5394403310125525
 20
0.6293084766169932
 30
0.0
 11
0.012501141486604193
 21
0.05958350554272752
 31
0.0
 40
0.43322855165816004
 41
0.0
 42
6.283185307179586
  0
ELLIPSE
  5
7E
330
17
100
AcDbEntity
  8
ELLIPSES
100
AcDbEllipse
 10
0.9053894436299113
 20
0.774158710055304
 30
0.0
 11
0.05560563136522501
 21
0.001254551616304371
 31
0.0
 40
0.3627116901357742
 41
0.0
 42
6.283185307179586
  0
ELLIPSE
  5
7F
330
17
100
AcDbEntity
  8
ELLIPSES
100
AcDbEllipse
 10
0.4616939779379445
 20
0.12404313855490756
 30
0.0
 11
-0.0078647232727205
 21
0.027661420815272567
 31
0.0
 40
0.6088719977751291
 41
0.0
 42
6.283185307179586
  0
ELLIPSE
  5
80
330
17
100
AcDbEntity
  8
ELLIPSES
100
AcDbEllipse
 10
0.26314387435455167
 20
0.03719881710180226
 30
0.0
 11
-0.004663103114738045
 21
0.022554153972564224
 31
0.0
 40
0.877281827283926
 41
0.0
 42
6.283185307179586
  0
ELLIPSE
  5
81
330
17
100
AcDbEntity
  8
ELLIPSES
100
AcDbEllipse
 10
0.04770705367771019
 20
0.40164308572228863
 30
0.0
 11
0.03748365734012853
 21
0.0034170422111236467
 31
0.0
 40
0.864237021306365
 41
0.0
 42
6.283185307179586
  0
ELLIPSE
  5
82
330
17
100
AcDbEntity
  8
ELLIPSES
100
AcDbEllipse
 10
0.3547737671493622
 20
0.07820487944875665
 30
0.0
 11
-0.03310541786579495
 21
0.00018704517950714195
 31
0.0
 40
0.6578445081185618
 41
0.0
 42
6.283185307179586
  0
ELLIPSE
  5
83
330
17
100
AcDbEntity
  8
ELLIPSES
100
AcDbEllipse
 10
0.39104090325140867
 20
0.13658570266789527
 30
0.0
 11
-0.01959986188959633
 21
0.013319357693488663
 31
0.0
 40
0.8965211083185121
 41
0.0
 42
6.283185307179586
  0
ELLIPSE
  5
84
330
17
100
AcDbEntity
  8
ELLIPSES
100
AcDbEllipse
 10
0.7284438785422855
 20
0.6899507814395565
 30
0.0
 11
-0.07178418215165286
 21
0.002639588321640432
 31
0.0
 40
0.3039000297013404
 41
0.0
 42
6.283185307179586
  0
ELLIPSE
  5
85
330
17
100
AcDbEntity
  8
ELLIPSES
100
AcDbEllipse
 10
0.4219713553614731
 20
0.4093317111537159
 30
0.0
 11
-0.02142587147522679
 21
0.002769555714037389
 31
0.0
 40
0.9716637478505578
 41
0.0
 42
6.283185307179586
  0
ELLIPSE
  5
86
330
17
100
AcDbEntity
  8
ELLIPSES
100
AcDbEllipse
 10
0.26345972995261635
 20
0.2687133830463042
 30
0.0
 11
-0.049453152726850844
 21
0.04638994099430188
 31
0.0
 40
0.21630015735153102
 41
0.0
 42
6.283185307179586
  0
ELLIPSE
  5
87
330
17
100
AcDbEntity
  8
ELLIPSES
100
AcDbEllipse
 10
0.5205129579944977
 20
0.42228037159930093
 30
0.0
 11
0.019006159606179518
 21
0.007416939484163477
 31
0.0
 40
0.6248226929972651
 41
0.0
 42
6.283185307179586
  0
ELLIPSE
  5
88
330
17
100
AcDbEntity
  8
ELLIPSES
100
AcDbEllipse
 10
0.9506161094014829
 20
0.3759532594915358
 30
0.0
 11
-0.026290840267535212
 21
0.010405290685957181
 31
0.0
 40
0.3790507593671972
 41
0.0
 42
6.283185307179586
  0
ELLIPSE
  5
89
330
17
100
AcDbEntity
  8
ELLIPSES
100
AcDbEllipse
 10
0.6259070092100926
 20
0.9343819523182998
 30
0.0
 11
-0.0019532269151133477
 21
0.02595536307452585
 31
0.0
 40
0.9701011047089172
 41
0.0
 42
6.283185307179586
  0
ELLIPSE
  5
8A
330
17
100
AcDbEntity
  8
ELLIPSES
100
AcDbEllipse
 10
0.9103203678742022
 20
0.1482837386972031
 30
0.0
 11
-0.0454258433396642
 21
0.035061868851515174
 31
0.0
 40
0.3543338448708844
 41
0.0
 42
6.283185307179586
  0
ELLIPSE
  5
8B
330
17
100
AcDbEntity
  8
ELLIPSES
100
AcDbEllipse
 10
0.1908148562483445
 20
0.13136538274093115
 30
0.0
 11
-0.00688801941188888
 21
0.027550017692197306
 31
0.0
 40
0.6387315215365786
 41
0.0
 42
6.283185307179586
  0
ELLIPSE
  5
8C
330
17
100
AcDbEntity
  8
ELLIPSES
100
AcDbEllipse
 10
0.10038269112921121
 20
0.5830721143131866
 30
0.0
 11
-0.039643814370542776
 21
0.0014089679072474583
 31
0.0
 40
0.5870119011401712
 41
0.0
 42
6.283185307179586
  0
ELLIPSE
  5
8D
330
17
100
AcDbEntity
  8
ELLIPSES
100
AcDbEllipse
 10
0.5762420827349963
 20
0.3111690236919097
 30
0.0
 11
-0.03848447141679331
 21
0.05712153160109257
 31
0.0
 40
0.18783501432889146
 41
0.0
 42
6.283185307179586
  0
ELLIPSE
  5
8E
330
17
100
AcDbEntity
  8
ELLIPSES
100
AcDbEllipse
 10
0.9174870080516663
 20
0.4846639188642995
 30
0.0
 11
-0.0033580569074639606
 21
0.029559402245531993
 31
0.0
 40
0.9526284578241618
 41
0.0
 42
6.283185307179586
  0
ELLIPSE
  5
8F
330
17
100
AcDbEntity
  8
ELLIPSES
100
AcDbEllipse
 10
0.151886113456716
 20
0.22442834039577853
 30
0.0
 11
-0.02779515188274326
 21
0.036849510031814754
 31
0.0
 40
0.2564502954675097
 41
0.0
 42
6.283185307179586
  0
ELLIPSE
  5
90
330
17
100
AcDbEntity
  8
ELLIPSES
100
AcDbEllipse
 10
0.26613873299145263
 20
0.1274613151630043
 30
0.0
 11
-0.054908656137102885
 21
0.021417209461549715
 31
0.0
 40
0.40018328017030796
 41
0.0
 42
6.283185307179586
  0
ELLIPSE
  5
91
330
17
100
AcDbEntity
  8
ELLIPSES
100
AcDbEllipse
 10
0.76402829943198
 20
0.36036228864479536
 30
0.0
 11
-0.03297724056182887
 21
0.03325583909013907
 31
0.0
 40
0.3755078784016789
 41
0.0
 42
6.283185307179586
  0
ELLIPSE
  5
92
330
17
100
AcDbEntity
  8
ELLIPSES
100
AcDbEllipse
 10
0.8673877684634304
 20
0.6154448517350132
 30
0.0
 11
-0.023846103113998207
 21
0.014299742330923734
 31
0.0
 40
0.9176179965077051
 41
0.0
 42
6.283185307179586
  0
ELLIPSE
  5
93
330
17
100
AcDbEntity
  8
ELLIPSES
100
AcDbEllipse
 10
0.7988165435954908
 20
0.8395255428041609
 30
0.0
 11
0.009747149233958122
 21
0.05726700104842653
 31
0.0
 40
0.33497765086329473
 41
0.0
 42
6.283185307179586
  0
ELLIPSE
  5
94
330
17
100
AcDbEntity
  8
ELLIPSES
100
AcDbEllipse
 10
0.4551430490606753
 20
0.46084408593081816
 30
0.0
 11
-0.00932919453328165
 21
0.028730760813624624
 31
0.0
 40
0.6333559464842434
 41
0.0
 42
6.283185307179586
  0
ELLIPSE
  5
95
330
17
100
AcDbEntity
  8
ELLIPSES
100
AcDbEllipse
 10
0.43854251501182767
 20
0.36354819225414164
 30
0.0
 11
-0.028982088373233454
 21
0.0068565078775559675
 31
0.0
 40
0.5286704825392061
 41
0.0
 42
6.283185307179586
  0
ELLIPSE
  5
96
330
17
100
AcDbEntity
  8
ELLIPSES
100
AcDbEllipse
 10
0.05329985181935793
 20
0.0990229911277805
 30
0.0
 11
-0.025160872882960025
 21
0.01336060404447693
 31
0.0
 40
0.9054145057240699
 41
0.0
 42
6.283185307179586
  0
ELLIPSE
  5
97
330
17
100
AcDbEntity
  8
ELLIPSES
100
AcDbEllipse
 10
0.7291326625886011
 20
0.5397495664428844
 30
0.0
 11
-0.04035718335098652
 21
0.06300984898764779
 31
0.0
 40
0.39169080616738755
 41
0.0
 42
6.283185307179586
  0
ELLIPSE
  5
98
330
17
100
AcDbEntity
  8
ELLIPSES
100
AcDbEllipse
 10
0.8833623056043014
 20
0.5676076363236059
 30
0.0
 11
0.01743482723370324
 21
0.02175332403605866
 31
0.0
 40
0.5379942939395901
 41
0.0
 42
6.283185307179586
  0
ELLIPSE
  5
99
330
17
100
AcDbEntity
  8
ELLIPSES
100
AcDbEllipse
 10
0.5841545199908398
 20
0.8041618639417989
 30
0.0
 11
-0.020620636668911087
 21
0.029217936529100933
 31
0.0
 40
0.9201579452348737
 41
0.0
 42
6.283185307179586
  0
ELLIPSE
  5
9A
330
17
100
AcDbEntity
  8
ELLIPSES
100
AcDbEllipse
 10
0.2560460651144826
 20
0.74624887418972
 30
0.0
 11
-0.038282965023789466
 21
0.006256292224556986
 31
0.0
 40
0.6484891616438364
 41
0.0
 42
6.283185307179586
  0
ELLIPSE
  5
9B
330
17
100
AcDbEntity
  8
ELLIPSES
100
AcDbEllipse
 10
0.07725500835779478
 20
0.26884782397183277
 30
0.0
 11
0.021100981709802537
 21
0.03305056295302369
 31
0.0
 40
0.2945776560021389
 41
0.0
 42
6.283185307179586
  0
ELLIPSE
  5
9C
330
17
100
AcDbEntity
  8
ELLIPSES
100
AcDbEllipse
 10
0.6921611184451213
 20
0.3938947427890554
 30
0.0
 11
-0.025211229105824382
 21
0.00549119973999408
 31
0.0
 40
0.80109582715722
 41
0.0
 42
6.283185307179586
  0
ELLIPSE
  5
9D
330
17
100
AcDbEntity
  8
ELLIPSES
100
AcDbEllipse
 10
0.049134761318479776
 20
0.8871838364706568
 30
0.0
 11
-0.013463659350128894
 21
0.029798511347619114
 31
0.0
 40
0.4295380894118048
 41
0.0
 42
6.283185307179586
  0
ELLIPSE
  5
9E
330
17
100
AcDbEntity
  8
ELLIPSES
100
AcDbEllipse
 10
0.06436359017361908
 20
0.9597867531482875
 30
0.0
 11
-0.00910596829490573
 21
0.0221343178924563
 31
0.0
 40
0.7106295503288488
 41
0.0
 42
6.283185307179586
  0
ELLIPSE
  5
9F
330
17
100
AcDbEntity
  8
ELLIPSES
100
AcDbEllipse
 10
0.6438069907879297
 20
0.8670440905968356
 30
0.0
 11
-0.033103248683071074
 21
-0.01855254034915722
 31
0.0
 40
0.6705867910985756
 41
0.0
 42
6.283185307179586
  0
ELLIPSE
  5
A0
330
17
100
AcDbEntity
  8
ELLIPSES
100
AcDbEllipse
 10
0.49527514978457754
 20
0.35897025561651835
 30
0.0
 11
0.019901614797265158
 21
0.02104012579459129
 31
0.0
 40
0.4718171091546319
 41
0.0
 42
6.283185307179586
  0
ELLIPSE
  5
A1
330
17
100
AcDbEntity
  8
ELLIPSES
100
AcDbEllipse
 10
0.6350984239682871
 20
0.049347416112765406
 30
0.0
 11
-0.019641221777064365
 21
-0.01118607690001736
 31
0.0
 40
0.9073035861364346
 41
0.0
 42
6.283185307179586
  0
ELLIPSE
  5
A2
330
17
100
AcDbEntity
  8
ELLIPSES
100
AcDbEllipse
 10
0.6162309245727157
 20
0.446361525675207
 30
0.0
 11
0.008276597077227586
 21
0.024574466300442195
 31
0.0
 40
0.39937391539587336
 41
0.0
 42
6.283185307179586
  0
ELLIPSE
  5
A3
330
17
100
AcDbEntity
  8
ELLIPSES
100
AcDbEllipse
 10
0.9122596682375933
 20
0.24714426904264175
 30
0.0
 11
0.04865695989721077
 21
0.048467846653847256
 31
0.0
 40
0.46460914235877776
 41
0.0
 42
6.283185307179586
  0
ELLIPSE
  5
A4
330
17
100
AcDbEntity
  8
ELLIPSES
100
AcDbEllipse
 10
0.3788761829600558
 20
0.9596394971918215
 30
0.0
 11
-0.019571066286250934
 21
0.011847466466477722
 31
0.0
 40
0.6168381066694034
 41
0.0
 42
6.283185307179586
  0
ELLIPSE
  5
A5
330
17
100
AcDbEntity
  8
ELLIPSES
100
AcDbEllipse
 10
0.5345207496116988
 20
0.27505757541507814
 30
0.0
 11
0.033837523025176695
 21
0.01708094843789636
 31
0.0
 40
0.3603964326735199
 41
0.0
 42
6.283185307179586
  0
ELLIPSE
  5
A6
330
17
100
AcDbEntity
  8
ELLIPSES
100
AcDbEllipse
 10
0.22715908737970825
 20
0.6007692910507848
 30
0.0
 11
0.010015630006509246
 21
0.05141480109032589
 31
0.0
 40
0.20887458963215616
 41
0.0
 42
6.283185307179586
  0
ENDSEC
  0
SECTION
  2
OBJECTS
  0
DICTIONARY
  5
A
330
0
100
AcDbDictionary
281
1
  3
ACAD_COLOR
350
B
  3
ACAD_GROUP
350
C
  3
ACAD_LAYOUT
350
D
  3
ACAD_MATERIAL
350
E
  3
ACAD_MLEADERSTYLE
350
F
  3
ACAD_MLINESTYLE
350
10
  3
ACAD_PLOTSETTINGS
350
11
  3
ACAD_PLOTSTYLENAME
350
12
  3
ACAD_SCALELIST
350
14
  3
ACAD_TABLESTYLE
350
15
  3
ACAD_VISUALSTYLE
350
16
  3
EZDXF_META
350
2D
  0
DICTIONARY
  5
B
330
A
100
AcDbDictionary
281
1
  0
DICTIONARY
  5
C
330
A
100
AcDbDictionary
281
1
  0
DICTIONARY
  5
D
330
A
100
AcDbDictionary
281
1
  3
Model
350
1A
  3
Layout1
350
1E
  0
DICTIONARY
  5
E
330
A
100
AcDbDictionary
281
1
  3
ByBlock
350
1F
  3
ByLayer
350
20
  3
Global
350
21
  0
DICTIONARY
  5
F
330
A
100
AcDbDictionary
281
1
  3
Standard
350
2C
  0
DICTIONARY
  5
10
330
A
100
AcDbDictionary
281
1
  3
Standard
350
22
  0
DICTIONARY
  5
11
330
A
100
AcDbDictionary
281
1
  0
ACDBDICTIONARYWDFLT
  5
12
330
A
100
AcDbDictionary
281
1
  3
Normal
350
13
100
AcDbDictionaryWithDefault
340
13
  0
ACDBPLACEHOLDER
  5
13
330
12
  0
DICTIONARY
  5
14
330
A
100
AcDbDictionary
281
1
  0
DICTIONARY
  5
15
330
A
100
AcDbDictionary
281
1
  0
DICTIONARY
  5
16
330
A
100
AcDbDictionary
281
1
  0
LAYOUT
  5
1A
330
D
100
AcDbPlotSettings
  1

  4
A3
  6

 40
7.5
 41
20.0
 42
7.5
 43
20.0
 44
420.0
 45
297.0
 46
0.0
 47
0.0
 48
0.0
 49
0.0
140
0.0
141
0.0
142
1.0
143
1.0
 70
1024
 72
1
 73
0
 74
5
  7

 75
16
 76
0
 77
2
 78
300
147
1.0
148
0.0
149
0.0
100
AcDbLayout
  1
Model
 70
1
 71
0
 10
0.0
 20
0.0
 11
420.0
 21
297.0
 12
0.0
 22
0.0
 32
0.0
 14
1e+20
 24
1e+20
 34
1e+20
 15
-1e+20
 25
-1e+20
 35
-1e+20
146
0.0
 13
0.0
 23
0.0
 33
0.0
 16
1.0
 26
0.0
 36
0.0
 17
0.0
 27
1.0
 37
0.0
 76
1
330
17
  0
LAYOUT
  5
1E
330
D
100
AcDbPlotSettings
  1

  4
A3
  6

 40
7.5
 41
20.0
 42
7.5
 43
20.0
 44
420.0
 45
297.0
 46
0.0
 47
0.0
 48
0.0
 49
0.0
140
0.0
141
0.0
142
1.0
143
1.0
 70
0
 72
1
 73
0
 74
5
  7

 75
16
 76
0
 77
2
 78
300
147
1.0
148
0.0
149
0.0
100
AcDbLayout
  1
Layout1
 70
1
 71
1
 10
0.0
 20
0.0
 11
420.0
 21
297.0
 12
0.0
 22
0.0
 32
0.0
 14
1e+20
 24
1e+20
 34
1e+20
 15
-1e+20
 25
-1e+20
 35
-1e+20
146
0.0
 13
0.0
 23
0.0
 33
0.0
 16
1.0
 26
0.0
 36
0.0
 17
0.0
 27
1.0
 37
0.0
 76
1
330
1B
  0
MATERIAL
  5
1F
102
{ACAD_REACTORS
330
E
102
}
330
E
100
AcDbMaterial
  1
ByBlock
  2

 70
0
 40
1.0
 71
1
 41
1.0
 91
-1023410177
 42
1.0
 72
1
  3

 73
1
 74
1
 75
1
 44
0.5
 73
0
 45
1.0
 46
1.0
 77
1
  4

 78
1
 79
1
170
1
 48
1.0
171
1
  6

172
1
173
1
174
1
140
1.0
141
1.0
175
1
  7

176
1
177
1
178
1
143
1.0
179
1
  8

270
1
271
1
272
1
145
1.0
146
1.0
273
1
  9

274
1
275
1
276
1
 42
1.0
 72
1
  3

 73
1
 74
1
 75
1
 94
63
  0
MATERIAL
  5
20
102
{ACAD_REACTORS
330
E
102
}
330
E
100
AcDbMaterial
  1
ByLayer
  2

 70
0
 40
1.0
 71
1
 41
1.0
 91
-1023410177
 42
1.0
 72
1
  3

 73
1
 74
1
 75
1
 44
0.5
 73
0
 45
1.0
 46
1.0
 77
1
  4

 78
1
 79
1
170
1
 48
1.0
171
1
  6

172
1
173
1
174
1
140
1.0
141
1.0
175
1
  7

176
1
177
1
178
1
143
1.0
179
1
  8

270
1
271
1
272
1
145
1.0
146
1.0
273
1
  9

274
1
275
1
276
1
 42
1.0
 72
1
  3

 73
1
 74
1
 75
1
 94
63
  0
MATERIAL
  5
21
102
{ACAD_REACTORS
330
E
102
}
330
E
100
AcDbMaterial
  1
Global
  2

 70
0
 40
1.0
 71
1
 41
1.0
 91
-1023410177
 42
1.0
 72
1
  3

 73
1
 74
1
 75
1
 44
0.5
 73
0
 45
1.0
 46
1.0
 77
1
  4

 78
1
 79
1
170
1
 48
1.0
171
1
  6

172
1
173
1
174
1
140
1.0
141
1.0
175
1
  7

176
1
177
1
178
1
143
1.0
179
1
  8

270
1
271
1
272
1
145
1.0
146
1.0
273
1
  9

274
1
275
1
276
1
 42
1.0
 72
1
  3

 73
1
 74
1
 75
1
 94
63
  0
MLINESTYLE
  5
22
102
{ACAD_REACTORS
330
10
102
}
330
10
100
AcDbMlineStyle
  2
Standard
 70
0
  3

 62
256
 51
90.0
 52
90.0
 71
2
 49
0.5
 62
256
  6
BYLAYER
 49
-0.5
 62
256
  6
BYLAYER
  0
MLEADERSTYLE
  5
2C
102
{ACAD_REACTORS
330
F
102
}
330
F
100
AcDbMLeaderStyle
179
2
170
2
171
1
172
0
 90
2
 40
0.0
 41
0.0
173
1
 91
-1056964608
 92
-2
290
1
 42
2.0
291
1
 43
8.0
  3
Standard
 44
4.0
300

342
29
174
1
175
1
176
0
178
1
 93
-1056964608
 45
4.0
292
0
297
0
 46
4.0
 94
-1056964608
 47
1.0
 49
1.0
140
1.0
294
1
141
0.0
177
0
142
1.0
295
0
296
0
143
3.75
271
0
272
9
273
9
  0
DICTIONARY
  5
2D
330
A
100
AcDbDictionary
280
1
281
1
  3
CREATED_BY_EZDXF
350
2E
  3
WRITTEN_BY_EZDXF
350
A9
  0
DICTIONARYVAR
  5
2E
330
2D
100
DictionaryVariables
280
0
  1
1.4.2 @ 2025-10-16T07:05:11.846873+00:00
  0
DICTIONARYVAR
  5
A9
330
2D
100
DictionaryVariables
280
0
  1
1.4.2 @ 2025-10-16T07:05:11.850695+00:00
  0
ENDSEC
  0
EOF
